#!OML:ASF H:\Dans Jumps\Project 1\Capture day 1\Session 1\subject.ASF
:FULLY-SPECIFIED
:DEGREES
183
root 0.766371 17.0206 -15.1552 11.0156 -1.93708 -2.17798
lowerback 8.83016 -0.582013 0.960331
upperback 5.64602 -0.705379 1.92306
thorax 0.910853 -0.362093 1.49979
lowerneck -15.5291 0.627313 -2.03605
upperneck 14.3808 1.42531 -0.60959
head 6.9434 0.514531 0.282599
rclavicle -2.28602e-014 4.11484e-014
rhumerus -26.3335 -13.4426 -76.9989
rradius 26.493
rwrist 29.6489
rhand -19.6349 -24.8386
rfingers 7.12502
rthumb 6.69226 -54.7128
lclavicle -2.28602e-014 4.11484e-014
lhumerus -23.8912 -2.79906 84.9068
lradius 21.4237
lwrist 10.7474
lhand -25.9712 -2.86424
lfingers 7.12502
lthumb 0.573548 27.1147
rfemur -31.1024 -2.59903 20.9639
rtibia 38.1534
rfoot -16.9935 -3.4233
rtoes 8.16498
lfemur -31.9279 10.4187 -19.7469
ltibia 38.2388
lfoot -15.2039 5.14779
ltoes -7.47448
184
root 0.765167 16.9904 -15.2054 11.3428 -1.8724 -2.19443
lowerback 9.30794 -0.583776 0.940518
upperback 5.76543 -0.70088 1.93723
thorax 0.773985 -0.360868 1.53051
lowerneck -15.6204 0.630714 -2.02266
upperneck 13.8245 1.42795 -0.649986
head 6.77923 0.519359 0.265988
rclavicle -9.0447e-015 3.75703e-014
rhumerus -26.5646 -13.43 -76.8495
rradius 26.5348
rwrist 29.6196
rhand -19.6279 -24.7901
rfingers 7.12502
rthumb 6.69907 -54.6641
lclavicle -9.0447e-015 3.75703e-014
lhumerus -24.1338 -2.90114 84.852
lradius 21.4423
lwrist 10.9854
lhand -26.1174 -3.06928
lfingers 7.12502
lthumb 0.432389 26.91
rfemur -32.0561 -2.66025 21.0324
rtibia 38.8911
rfoot -17.1106 -3.45136
rtoes 8.09803
lfemur -32.9127 10.4762 -19.8371
ltibia 38.9715
lfoot -15.3308 5.07133
ltoes -7.51231
185
root 0.763666 16.9593 -15.2557 11.6825 -1.81508 -2.2008
lowerback 9.78812 -0.581173 0.901162
upperback 5.87969 -0.69213 1.95018
thorax 0.631292 -0.357964 1.57069
lowerneck -15.6944 0.634859 -2.01281
upperneck 13.2579 1.43026 -0.683183
head 6.60922 0.524712 0.252199
rclavicle -9.0447e-015 3.57812e-015
rhumerus -26.8165 -13.4246 -76.6915
rradius 26.5576
rwrist 29.6055
rhand -19.6252 -24.7614
rfingers 7.12502
rthumb 6.7016 -54.6353
lclavicle -9.0447e-015 3.57812e-015
lhumerus -24.3943 -3.02989 84.8072
lradius 21.4348
lwrist 11.2423
lhand -26.2777 -3.31821
lfingers 7.12502
lthumb 0.277529 26.6613
rfemur -33.0316 -2.72265 21.0922
rtibia 39.6379
rfoot -17.2296 -3.46953
rtoes 8.03872
lfemur -33.9108 10.5244 -19.9398
ltibia 39.7026
lfoot -15.4544 5.01006
ltoes -7.54764
186
root 0.761955 16.9273 -15.3061 12.0441 -1.76682 -2.1961
lowerback 10.2582 -0.572666 0.843244
upperback 5.98399 -0.67749 1.96123
thorax 0.484472 -0.352491 1.61873
lowerneck -15.7659 0.639645 -1.99799
upperneck 12.7048 1.4329 -0.720796
head 6.44376 0.529973 0.236318
rclavicle 4.77083e-015 1.0138e-014
rhumerus -27.094 -13.4211 -76.5225
rradius 26.5647
rwrist 29.5919
rhand -19.6101 -24.7389
rfingers 7.12502
rthumb 6.7162 -54.6124
lclavicle 4.77083e-015 1.0138e-014
lhumerus -24.6773 -3.19222 84.779
lradius 21.4036
lwrist 11.5387
lhand -26.4044 -3.50651
lfingers 7.12502
lthumb 0.155192 26.4732
rfemur -34.0402 -2.78213 21.1419
rtibia 40.3951
rfoot -17.3505 -3.48133
rtoes 7.98983
lfemur -34.9328 10.5653 -20.0588
ltibia 40.4323
lfoot -15.5757 4.96446
ltoes -7.57471
187
root 0.76008 16.8942 -15.3565 12.4336 -1.72658 -2.18615
lowerback 10.7045 -0.55914 0.773253
upperback 6.08356 -0.658224 1.97258
thorax 0.346382 -0.344964 1.67311
lowerneck -15.8499 0.645988 -1.98015
upperneck 12.1697 1.43816 -0.764018
head 6.28669 0.535942 0.218594
rclavicle 2.18663e-015 2.127e-014
rhumerus -27.3815 -13.4206 -76.3446
rradius 26.5503
rwrist 29.5802
rhand -19.5724 -24.7371
rfingers 7.12502
rthumb 6.75259 -54.6094
lclavicle 2.18663e-015 2.127e-014
lhumerus -24.971 -3.37469 84.7649
lradius 21.3604
lwrist 11.8726
lhand -26.4739 -3.59999
lfingers 7.12502
lthumb 0.0880271 26.3797
rfemur -35.089 -2.83568 21.1878
rtibia 41.1632
rfoot -17.4719 -3.48966
rtoes 7.93948
lfemur -35.9869 10.5968 -20.1878
ltibia 41.163
lfoot -15.6935 4.93638
ltoes -7.60073
188
root 0.758184 16.8597 -15.4071 12.8543 -1.69465 -2.17045
lowerback 11.1351 -0.54069 0.69293
upperback 6.16834 -0.634047 1.98353
thorax 0.20193 -0.335124 1.73214
lowerneck -15.9495 0.651171 -1.96357
upperneck 11.6645 1.44303 -0.809434
head 6.14219 0.541102 0.200566
rclavicle 2.98177e-015 1.19271e-015
rhumerus -27.6946 -13.4121 -76.1559
rradius 26.5258
rwrist 29.5651
rhand -19.5039 -24.7508
rfingers 7.12502
rthumb 6.81877 -54.6209
lclavicle 2.98177e-015 1.19271e-015
lhumerus -25.2891 -3.58231 84.7664
lradius 21.3069
lwrist 12.2193
lhand -26.4911 -3.63954
lfingers 7.12502
lthumb 0.0714609 26.3402
rfemur -36.1833 -2.88214 21.2288
rtibia 41.9444
rfoot -17.5948 -3.49599
rtoes 7.8882
lfemur -37.0797 10.6165 -20.3281
ltibia 41.8997
lfoot -15.8085 4.92947
ltoes -7.62379
189
root 0.756301 16.8237 -15.4577 13.3066 -1.66659 -2.15478
lowerback 11.5456 -0.517417 0.612812
upperback 6.24087 -0.604315 1.99518
thorax 0.0559425 -0.322408 1.79087
lowerneck -16.0767 0.655302 -1.94257
upperneck 11.1925 1.44757 -0.862656
head 6.01327 0.545195 0.179592
rclavicle 7.35503e-015 2.00773e-014
rhumerus -28.0376 -13.3962 -75.9546
rradius 26.5021
rwrist 29.5471
rhand -19.4027 -24.7533
rfingers 7.12502
rthumb 6.91638 -54.6203
lclavicle 7.35503e-015 2.00773e-014
lhumerus -25.6348 -3.80155 84.7824
lradius 21.2514
lwrist 12.5327
lhand -26.4618 -3.65414
lfingers 7.12502
lthumb 0.0997023 26.3256
rfemur -37.3235 -2.92128 21.2709
rtibia 42.7395
rfoot -17.7194 -3.50413
rtoes 7.83242
lfemur -38.2151 10.6234 -20.4727
ltibia 42.6474
lfoot -15.9226 4.94269
ltoes -7.652
190
root 0.754449 16.7856 -15.5086 13.788 -1.64266 -2.14065
lowerback 11.9453 -0.489719 0.534718
upperback 6.29923 -0.569131 2.00767
thorax -0.0987298 -0.306794 1.84845
lowerneck -16.2301 0.656118 -1.926
upperneck 10.7484 1.44928 -0.914966
head 5.89768 0.547398 0.159608
rclavicle 1.40143e-014 -1.41137e-014
rhumerus -28.4137 -13.3895 -75.7352
rradius 26.4747
rwrist 29.545
rhand -19.2779 -24.7247
rfingers 7.12502
rthumb 7.03694 -54.5877
lclavicle 1.40143e-014 -1.41137e-014
lhumerus -26.0088 -4.02041 84.8092
lradius 21.1945
lwrist 12.7826
lhand -26.4064 -3.67943
lfingers 7.12502
lthumb 0.153195 26.3003
rfemur -38.5092 -2.95296 21.3161
rtibia 43.5502
rfoot -17.846 -3.51432
rtoes 7.77033
lfemur -39.3941 10.6189 -20.6195
ltibia 43.4117
lfoot -16.0367 4.97358
ltoes -7.66363
191
root 0.752652 16.7457 -15.5594 14.2853 -1.61969 -2.12968
lowerback 12.3462 -0.46159 0.459778
upperback 6.34895 -0.533508 2.02052
thorax -0.262691 -0.290752 1.90442
lowerneck -16.383 0.656808 -1.92214
upperneck 10.2987 1.45088 -0.950669
head 5.78011 0.550482 0.146968
rclavicle 1.47101e-014 -2.00773e-014
rhumerus -28.8108 -13.3779 -75.5135
rradius 26.447
rwrist 29.5499
rhand -19.1348 -24.7184
rfingers 7.12502
rthumb 7.17506 -54.5768
lclavicle 1.47101e-014 -2.00773e-014
lhumerus -26.409 -4.23295 84.8369
lradius 21.1336
lwrist 12.9358
lhand -26.2711 -3.61701
lfingers 7.12502
lthumb 0.283952 26.3625
rfemur -39.7228 -2.98135 21.3663
rtibia 44.3762
rfoot -17.9785 -3.52568
rtoes 7.70841
lfemur -40.5999 10.5986 -20.7621
ltibia 44.1947
lfoot -16.1509 5.03044
ltoes -7.67504
192
root 0.750887 16.7036 -15.6104 14.7961 -1.59792 -2.12534
lowerback 12.7475 -0.430782 0.395992
upperback 6.38902 -0.493604 2.03254
thorax -0.436807 -0.27216 1.95251
lowerneck -16.5336 0.652964 -1.92748
upperneck 9.84833 1.4463 -0.972795
head 5.66189 0.551339 0.139541
rclavicle 4.77083e-015 4.17448e-015
rhumerus -29.2446 -13.3906 -75.2762
rradius 26.4173
rwrist 29.5824
rhand -18.9958 -24.6723
rfingers 7.12502
rthumb 7.30925 -54.5261
lclavicle 4.77083e-015 4.17448e-015
lhumerus -26.8488 -4.44558 84.871
lradius 21.0787
lwrist 13.0183
lhand -26.1559 -3.62644
lfingers 7.12502
lthumb 0.395204 26.3529
rfemur -40.9637 -3.00617 21.4263
rtibia 45.2181
rfoot -18.1172 -3.5405
rtoes 7.63843
lfemur -41.8331 10.5678 -20.8968
ltibia 44.9999
lfoot -16.2703 5.1083
ltoes -7.66588
193
root 0.74911 16.6594 -15.6612 15.307 -1.57565 -2.12702
lowerback 13.1587 -0.400156 0.340851
upperback 6.42536 -0.45332 2.04298
thorax -0.619851 -0.253045 1.99388
lowerneck -16.6722 0.648841 -1.93599
upperneck 9.38666 1.43992 -0.983577
head 5.5381 0.552322 0.135981
rclavicle 9.14409e-015 -1.94809e-014
rhumerus -29.7037 -13.4178 -75.0347
rradius 26.3813
rwrist 29.6266
rhand -18.8649 -24.6208
rfingers 7.12502
rthumb 7.43554 -54.4702
lclavicle 9.14409e-015 -1.94809e-014
lhumerus -27.3243 -4.65023 84.9049
lradius 21.0355
lwrist 13.0512
lhand -26.0936 -3.69372
lfingers 7.12502
lthumb 0.45539 26.2855
rfemur -42.2134 -3.03054 21.4954
rtibia 46.0747
rfoot -18.2681 -3.55539
rtoes 7.58551
lfemur -43.0753 10.522 -21.0188
ltibia 45.8256
lfoot -16.3965 5.2098
ltoes -7.66153
